<svg xmlns="http://www.w3.org/2000/svg" viewBox="0 0 400 180" width="400" height="180">
  <!-- Left wing -->
  <g transform="translate(60,60) scale(0.9)" fill="#fff">
    <path d="M100,50 C85,20 50,0 10,10 C30,20 45,35 55,50 C35,35 15,30 -5,35 C20,40 40,50 50,60 C30,55 10,55 -10,60 C15,62 35,65 50,72 C35,68 15,70 0,78 C20,75 40,78 55,85 L80,72 Z" opacity="0.95"/>
  </g>
  <!-- Right wing (mirrored) -->
  <g transform="translate(340,60) scale(-0.9,0.9)" fill="#fff">
    <path d="M100,50 C85,20 50,0 10,10 C30,20 45,35 55,50 C35,35 15,30 -5,35 C20,40 40,50 50,60 C30,55 10,55 -10,60 C15,62 35,65 50,72 C35,68 15,70 0,78 C20,75 40,78 55,85 L80,72 Z" opacity="0.95"/>
  </g>
  <!-- Banner -->
  <rect x="110" y="75" width="180" height="35" rx="3" fill="#fff" opacity="0.9"/>
  <text x="200" y="98" text-anchor="middle" font-family="Georgia,serif" font-size="18" font-weight="bold" fill="#0E0E10" letter-spacing="2">ROBIN'S JEAN</text>
  <!-- Sub text -->
  <text x="200" y="135" text-anchor="middle" font-family="Georgia,serif" font-size="11" font-style="italic" fill="#fff" opacity="0.7">Real American Jean's</text>
</svg>
